# xmcd
#
# Track frame offsets: 
#        150
#        14667
#        26769
#        41410
#        58155
#        73790
#        93080
#        110675
#        126352
#        148690
#        166280
#        178525
#
# Disc length: 2651 seconds
#
# Revision: 0
# Processed by: cddbd v1.5.2PL0 Copyright (c) Steve Scherf et al.
# Submitted via: ExactAudioCopyFreeDBPlugin 1.0
#
DISCID=ab0a590c
DTITLE=Scott Anderson and Roy Buchanan - Attack Of The Telecasters
DYEAR=2003
DGENRE=Blues
TTITLE0=My Baby Left Me
TTITLE1=Folsom Prison Blues
TTITLE2=Watermelon Man
TTITLE3=Ruby Baby
TTITLE4=Mystery Train
TTITLE5=Sea Blues
TTITLE6=Johnny B Goode
TTITLE7=Big City
TTITLE8=Green Onions
TTITLE9=My Babe
TTITLE10=Susie Q
TTITLE11=The Messiah Will Come Again
EXTD=
EXTT0=
EXTT1=
EXTT2=
EXTT3=
EXTT4=
EXTT5=
EXTT6=
EXTT7=
EXTT8=
EXTT9=
EXTT10=
EXTT11=
PLAYORDER=
